<?xml version="1.0" encoding="utf-8"?>
<svg xmlns="http://www.w3.org/2000/svg" style="margin: auto; display: block; shape-rendering: auto;" width="250" height="250" preserveAspectRatio="xMidYMid">
<style type="text/css">
  text {
    text-anchor: middle; font-size: 183px; opacity: 0;
  }
</style>
<g transform="translate(125,125)">
  <g transform="translate(0,82)"><g class="path" style="transform-origin: -75.58px -1.72359px; animation: 1s linear -0.528s infinite normal forwards running blink-363abcc8-f110-4f55-9d37-dfc67eab8577; opacity: 1;"><path d="M15.01-2.38L15.01-2.38L15.01-2.38Q11.16-6.22 11.16-11.71L11.16-11.71L11.16-11.71Q11.16-17.20 15.01-21.14L15.01-21.14L15.01-21.14Q18.85-25.07 24.34-25.07L24.34-25.07L24.34-25.07Q29.83-25.07 33.76-21.14L33.76-21.14L33.76-21.14Q37.70-17.20 37.70-11.71L37.70-11.71L37.70-11.71Q37.70-6.22 33.76-2.38L33.76-2.38L33.76-2.38Q29.83 1.46 24.34 1.46L24.34 1.46L24.34 1.46Q18.85 1.46 15.01-2.38" fill="#666666" stroke="none" stroke-width="none" transform="translate(-100.00997924804688,10.081399536132812)" style="fill: rgb(53, 53, 53);"></path></g><g class="path" style="transform-origin: -32.21px -1.72359px; animation: 1s linear -0.396s infinite normal forwards running blink-363abcc8-f110-4f55-9d37-dfc67eab8577; opacity: 1;"><path d="M58.38-2.38L58.38-2.38L58.38-2.38Q54.53-6.22 54.53-11.71L54.53-11.71L54.53-11.71Q54.53-17.20 58.38-21.14L58.38-21.14L58.38-21.14Q62.22-25.07 67.71-25.07L67.71-25.07L67.71-25.07Q73.20-25.07 77.13-21.14L77.13-21.14L77.13-21.14Q81.07-17.20 81.07-11.71L81.07-11.71L81.07-11.71Q81.07-6.22 77.13-2.38L77.13-2.38L77.13-2.38Q73.20 1.46 67.71 1.46L67.71 1.46L67.71 1.46Q62.22 1.46 58.38-2.38" fill="#666666" stroke="none" stroke-width="none" transform="translate(-100.00997924804688,10.081399536132812)" style="fill: rgb(102, 102, 102);"></path></g><g class="path" style="transform-origin: 11.165px -1.72359px; animation: 1s linear -0.264s infinite normal forwards running blink-363abcc8-f110-4f55-9d37-dfc67eab8577; opacity: 1;"><path d="M101.75-2.38L101.75-2.38L101.75-2.38Q97.91-6.22 97.91-11.71L97.91-11.71L97.91-11.71Q97.91-17.20 101.75-21.14L101.75-21.14L101.75-21.14Q105.59-25.07 111.08-25.07L111.08-25.07L111.08-25.07Q116.57-25.07 120.51-21.14L120.51-21.14L120.51-21.14Q124.44-17.20 124.44-11.71L124.44-11.71L124.44-11.71Q124.44-6.22 120.51-2.38L120.51-2.38L120.51-2.38Q116.57 1.46 111.08 1.46L111.08 1.46L111.08 1.46Q105.59 1.46 101.75-2.38" fill="#666666" stroke="none" stroke-width="none" transform="translate(-100.00997924804688,10.081399536132812)" style="fill: rgb(155, 155, 155);"></path></g><g class="path" style="transform-origin: 54.535px -1.72359px; animation: 1s linear -0.132s infinite normal forwards running blink-363abcc8-f110-4f55-9d37-dfc67eab8577; opacity: 1;"><path d="M145.12-2.38L145.12-2.38L145.12-2.38Q141.28-6.22 141.28-11.71L141.28-11.71L141.28-11.71Q141.28-17.20 145.12-21.14L145.12-21.14L145.12-21.14Q148.96-25.07 154.45-25.07L154.45-25.07L154.45-25.07Q159.94-25.07 163.88-21.14L163.88-21.14L163.88-21.14Q167.81-17.20 167.81-11.71L167.81-11.71L167.81-11.71Q167.81-6.22 163.88-2.38L163.88-2.38L163.88-2.38Q159.94 1.46 154.45 1.46L154.45 1.46L154.45 1.46Q148.96 1.46 145.12-2.38" fill="#666666" stroke="none" stroke-width="none" transform="translate(-100.00997924804688,10.081399536132812)" style="fill: rgb(212, 212, 212);"></path></g><g class="path" style="transform-origin: 97.905px -1.72359px; animation: 1s linear 0s infinite normal forwards running blink-363abcc8-f110-4f55-9d37-dfc67eab8577; opacity: 1;"><path d="M188.49-2.38L188.49-2.38L188.49-2.38Q184.65-6.22 184.65-11.71L184.65-11.71L184.65-11.71Q184.65-17.20 188.49-21.14L188.49-21.14L188.49-21.14Q192.33-25.07 197.82-25.07L197.82-25.07L197.82-25.07Q203.31-25.07 207.25-21.14L207.25-21.14L207.25-21.14Q211.18-17.20 211.18-11.71L211.18-11.71L211.18-11.71Q211.18-6.22 207.25-2.38L207.25-2.38L207.25-2.38Q203.31 1.46 197.82 1.46L197.82 1.46L197.82 1.46Q192.33 1.46 188.49-2.38" fill="#666666" stroke="none" stroke-width="none" transform="translate(-100.00997924804688,10.081399536132812)" style="fill: rgb(255, 255, 255);"></path></g></g>
</g>
<style id="blink-363abcc8-f110-4f55-9d37-dfc67eab8577" data-anikit="">@keyframes blink-363abcc8-f110-4f55-9d37-dfc67eab8577 {
  0% { opacity: 1; }
  49.75% { opacity: 1; }
  50.24999999999999% { opacity: 0; }
  99.5% { opacity: 0; }
  100% { opacity: 1; }
}</style><style id="blink-363abcc8-f110-4f55-9d37-dfc67eab8577" data-anikit="">@keyframes blink-363abcc8-f110-4f55-9d37-dfc67eab8577 {
  0% { opacity: 1; }
  49.75% { opacity: 1; }
  50.24999999999999% { opacity: 0; }
  99.5% { opacity: 0; }
  100% { opacity: 1; }
}</style></svg>